<?xml version="1.0" encoding="UTF-8"?>
<svg width="1005px" height="489px" viewBox="0 0 1005 489" version="1.1" xmlns="http://www.w3.org/2000/svg" xmlns:xlink="http://www.w3.org/1999/xlink">
    <!-- Generator: Sketch 47.1 (45422) - http://www.bohemiancoding.com/sketch -->
    <title>CouponFollow Logo Vertical</title>
    <desc>Created with Sketch.</desc>
    <defs></defs>
    <g id="Approved-Designs" stroke="none" stroke-width="1" fill="none" fill-rule="evenodd">
        <g id="CouponFollow-Logo" transform="translate(-94.000000, -442.000000)">
            <g id="CouponFollow-Logo-Vertical" transform="translate(102.000000, 451.000000)">
                <polygon id="Fill-2474" fill="#20C99D" points="0.658031088 471.435233 987.968912 471.435233 987.968912 0.0621761658 0.658031088 0.0621761658"></polygon>
                <polyline id="Fill-2475" fill="#1BBC9B" points="987.971503 0.0658031088 987.971503 471.43886 0.660621762 471.43886"></polyline>
                <g id="Group-2488" transform="translate(77.720207, 100.445596)" fill="#187F5D">
                    <polygon id="Fill-2487" points="656.997409 169.601554 678.515544 169.601554 704.489637 278.793264 733.919689 173.658549 752.795337 173.658549 781.61399 278.580829 807.588083 169.601554 827.88342 169.601554 791.562176 304.974611 770.857513 304.974611 742.645078 204.912435 713.624352 304.974611 693.126943 304.974611"></polygon>
                </g>
                <path d="M205.825907,198.398964 C202.981347,202.331606 199.535751,206.020725 195.478756,209.471503 C191.421762,212.917098 186.919171,215.927461 181.976166,218.497409 C177.033161,221.067358 171.696373,223.103627 165.945078,224.590674 C160.18342,226.067358 154.198964,226.818653 147.981347,226.818653 C137.696373,226.818653 128.297409,225.062176 119.768912,221.544041 C111.245596,218.031088 103.903627,213.119171 97.7585492,206.829016 C91.5979275,200.533679 86.8207254,193.098446 83.442487,184.502591 C80.0642487,175.911917 78.3699482,166.476684 78.3699482,156.19171 C78.3699482,146.181347 80.0642487,136.80829 83.442487,128.088083 C86.8207254,119.352332 91.5979275,111.777202 97.7585492,105.34715 C103.903627,98.9326425 111.276684,93.8497409 119.872539,90.1295337 C128.458031,86.4145078 137.965803,84.5440415 148.385492,84.5440415 C160.976166,84.5440415 171.965803,86.8549223 181.364767,91.4455959 C190.774093,96.0569948 198.587565,102.683938 204.810363,111.341969 L183.908808,131.430052 C179.846632,125.751295 175.043523,121.176166 169.489119,117.73057 C163.945078,114.284974 157.323316,112.554404 149.603109,112.554404 C143.520207,112.554404 138.033161,113.668394 133.167876,115.906736 C128.297409,118.139896 124.167876,121.217617 120.789637,125.139896 C117.401036,129.067358 114.805181,133.632124 112.970984,138.834197 C111.14715,144.056995 110.230052,149.564767 110.230052,155.378238 C110.230052,161.336788 111.14715,166.88601 112.970984,172.025907 C114.805181,177.165803 117.401036,181.632124 120.789637,185.414508 C124.167876,189.202073 128.22487,192.186528 132.960622,194.341969 C137.696373,196.518135 143.043523,197.595855 148.99171,197.595855 C153.867358,197.595855 158.095337,197.088083 161.675648,196.072539 C165.266321,195.056995 168.447668,193.704663 171.214508,192.015544 C173.99171,190.316062 176.463212,188.362694 178.629016,186.129534 C180.789637,183.896373 182.888083,181.632124 184.919171,179.321244 L205.825907,198.398964 Z" id="Fill-2489" fill="#FFFFFF"></path>
                <path d="M283.353368,198.004145 C289.301554,198.004145 294.653886,196.848705 299.389637,194.553368 C304.125389,192.25285 308.146114,189.13886 311.467358,185.211399 C314.773057,181.289119 317.311917,176.760622 319.073575,171.610363 C320.830052,166.475648 321.710881,160.993782 321.710881,155.17513 C321.710881,149.356477 320.830052,143.879793 319.073575,138.739896 C317.311917,133.6 314.773057,129.097409 311.467358,125.237306 C308.146114,121.387565 304.125389,118.340933 299.389637,116.107772 C294.653886,113.879793 289.301554,112.765803 283.353368,112.765803 C277.4,112.765803 272.021762,113.879793 267.218653,116.107772 C262.410363,118.340933 258.353368,121.387565 255.042487,125.237306 C251.726425,129.097409 249.187565,133.6 247.425907,138.739896 C245.674611,143.879793 244.793782,149.356477 244.793782,155.17513 C244.793782,160.993782 245.674611,166.475648 247.425907,171.610363 C249.187565,176.760622 251.726425,181.289119 255.042487,185.211399 C258.353368,189.13886 262.410363,192.25285 267.218653,194.553368 C272.021762,196.848705 277.4,198.004145 283.353368,198.004145 M283.353368,226.822798 C273.332642,226.822798 264.037306,224.988601 255.451813,221.340933 C246.850777,217.688083 239.415544,212.67772 233.125389,206.320207 C226.835233,199.962694 221.892228,192.418653 218.306736,183.688083 C214.721244,174.962694 212.933679,165.594819 212.933679,155.579275 C212.933679,145.434197 214.721244,136.030052 218.306736,127.372021 C221.892228,118.71399 226.835233,111.201036 233.125389,104.843523 C239.415544,98.4860104 246.850777,93.4756477 255.451813,89.8227979 C264.037306,86.1751295 273.332642,84.346114 283.353368,84.346114 C293.363731,84.346114 302.66943,86.1751295 311.254922,89.8227979 C319.855959,93.4756477 327.291192,98.4860104 333.586528,104.843523 C339.871503,111.201036 344.814508,118.71399 348.4,127.372021 C351.985492,136.030052 353.778238,145.434197 353.778238,155.579275 C353.778238,165.594819 351.985492,174.962694 348.4,183.688083 C344.814508,192.418653 339.871503,199.962694 333.586528,206.320207 C327.291192,212.67772 319.855959,217.688083 311.254922,221.340933 C302.66943,224.988601 293.363731,226.822798 283.353368,226.822798" id="Fill-2490" fill="#FFFFFF"></path>
                <path d="M373.87513,87.9968912 L404.719689,87.9968912 L404.719689,168.167876 C404.719689,172.634197 405.154922,176.660104 406.046114,180.245596 C406.91658,183.825907 408.37772,186.903627 410.408808,189.473575 C412.424352,192.053886 415.103109,194.038342 418.424352,195.463212 C421.730052,196.888083 425.823316,197.592746 430.698964,197.592746 C435.434715,197.592746 439.45544,196.888083 442.776684,195.463212 C446.092746,194.038342 448.76114,192.053886 450.797409,189.473575 C452.818135,186.903627 454.274093,183.825907 455.160104,180.245596 C456.035751,176.660104 456.470984,172.634197 456.470984,168.167876 L456.470984,87.9968912 L487.533161,87.9968912 L487.533161,172.027979 C487.533161,180.141969 486.206736,187.582383 483.564249,194.33886 C480.932124,201.110881 477.14456,206.898446 472.206736,211.696373 C467.263731,216.504663 461.274093,220.255959 454.243005,222.960622 C447.201554,225.670466 439.356995,227.017617 430.698964,227.017617 C422.040933,227.017617 414.191192,225.701554 407.154922,223.059067 C400.118653,220.426943 394.134197,216.670466 389.196373,211.8 C384.258549,206.929534 380.465803,201.110881 377.828497,194.33886 C375.191192,187.582383 373.87513,180.141969 373.87513,172.027979 L373.87513,87.9968912 Z" id="Fill-2491" fill="#FFFFFF"></path>
                <path d="M560.58601,150.917098 C566.269948,150.917098 570.767358,149.19171 574.08342,145.746114 C577.394301,142.284974 579.052332,137.792746 579.052332,132.243523 C579.052332,126.559585 577.358031,121.92228 573.979793,118.341969 C570.601554,114.756477 566.062694,112.963731 560.383938,112.963731 L542.725907,112.963731 L542.725907,150.917098 L560.58601,150.917098 Z M512.886528,87.9948187 L562.207772,87.9948187 C570.601554,87.9948187 577.767358,89.2176166 583.720725,91.6528497 C589.674093,94.0829016 594.58601,97.3005181 598.435751,101.290155 C602.290674,105.284974 605.135233,109.911917 606.959067,115.19171 C608.788083,120.471503 609.7,125.953368 609.7,131.632124 C609.7,138.937824 608.451295,145.336788 605.943523,150.813472 C603.440933,156.290155 600.062694,160.854922 595.803627,164.518135 C591.534197,168.165803 586.627461,170.943005 581.078238,172.834197 C575.529016,174.735751 569.720725,175.673575 563.632642,175.673575 L542.725907,175.673575 L542.725907,223.362694 L512.886528,223.362694 L512.886528,87.9948187 Z" id="Fill-2492" fill="#FFFFFF"></path>
                <path d="M695.341451,198.004145 C701.289637,198.004145 706.641969,196.848705 711.382902,194.553368 C716.113472,192.25285 720.139378,189.13886 723.45544,185.211399 C726.76114,181.289119 729.3,176.760622 731.066839,171.610363 C732.818135,166.475648 733.698964,160.993782 733.698964,155.17513 C733.698964,149.356477 732.818135,143.879793 731.066839,138.739896 C729.3,133.6 726.76114,129.097409 723.45544,125.237306 C720.139378,121.387565 716.113472,118.340933 711.382902,116.107772 C706.641969,113.879793 701.289637,112.765803 695.341451,112.765803 C689.388083,112.765803 684.009845,113.879793 679.211917,116.107772 C674.403627,118.340933 670.341451,121.387565 667.03057,125.237306 C663.714508,129.097409 661.180829,133.6 659.41399,138.739896 C657.662694,143.879793 656.781865,149.356477 656.781865,155.17513 C656.781865,160.993782 657.662694,166.475648 659.41399,171.610363 C661.180829,176.760622 663.714508,181.289119 667.03057,185.211399 C670.341451,189.13886 674.403627,192.25285 679.211917,194.553368 C684.009845,196.848705 689.388083,198.004145 695.341451,198.004145 M695.341451,226.822798 C685.325907,226.822798 676.03057,224.988601 667.439896,221.340933 C658.844041,217.688083 651.408808,212.67772 645.118653,206.320207 C638.828497,199.962694 633.880311,192.418653 630.294819,183.688083 C626.709326,174.962694 624.921762,165.594819 624.921762,155.579275 C624.921762,145.434197 626.709326,136.030052 630.294819,127.372021 C633.880311,118.71399 638.828497,111.201036 645.118653,104.843523 C651.408808,98.4860104 658.844041,93.4756477 667.439896,89.8227979 C676.03057,86.1751295 685.325907,84.346114 695.341451,84.346114 C705.356995,84.346114 714.657513,86.1751295 723.253368,89.8227979 C731.844041,93.4756477 739.284456,98.4860104 745.574611,104.843523 C751.864767,111.201036 756.802591,118.71399 760.393264,127.372021 C763.973575,136.030052 765.766321,145.434197 765.766321,155.579275 C765.766321,165.594819 763.973575,174.962694 760.393264,183.688083 C756.802591,192.418653 751.864767,199.962694 745.574611,206.320207 C739.284456,212.67772 731.844041,217.688083 723.253368,221.340933 C714.657513,224.988601 705.356995,226.822798 695.341451,226.822798" id="Fill-2493" fill="#FFFFFF"></path>
                <polygon id="Fill-2494" fill="#FFFFFF" points="786.865285 87.9968912 816.098446 87.9968912 874.746114 175.872539 874.746114 87.9968912 904.989637 87.9968912 904.989637 223.364767 877.186528 223.364767 817.11399 133.872539 817.11399 223.364767 786.865285 223.364767"></polygon>
                <polygon id="Fill-2495" fill="#19805F" points="94.6088083 253.359585 179.639896 253.359585 179.639896 270.815544 114.085492 270.815544 114.085492 312.214508 164.018135 312.214508 164.018135 329.463212 114.085492 329.463212 114.085492 388.732642 94.6088083 388.732642"></polygon>
                <path d="M269.550259,373.911917 C276.990674,373.911917 283.716062,372.492228 289.741969,369.65285 C295.762694,366.813472 300.902591,362.953368 305.166839,358.082902 C309.425907,353.212435 312.705699,347.564767 315.006218,341.139896 C317.311917,334.715026 318.462176,327.911917 318.462176,320.735751 C318.462176,313.430052 317.311917,306.564767 315.006218,300.134715 C312.705699,293.715026 309.425907,288.062176 305.166839,283.19171 C300.902591,278.326425 295.762694,274.497409 289.741969,271.725389 C283.716062,268.953368 276.990674,267.564767 269.550259,267.564767 C262.104663,267.564767 255.410363,268.953368 249.451813,271.725389 C243.503627,274.497409 238.4,278.326425 234.13057,283.19171 C229.871503,288.062176 226.586528,293.715026 224.28601,300.134715 C221.980311,306.564767 220.835233,313.430052 220.835233,320.735751 C220.835233,327.911917 221.980311,334.715026 224.28601,341.139896 C226.586528,347.564767 229.871503,353.212435 234.13057,358.082902 C238.4,362.953368 243.503627,366.813472 249.451813,369.65285 C255.410363,372.492228 262.104663,373.911917 269.550259,373.911917 M269.550259,392.176166 C259.809326,392.176166 250.741969,390.316062 242.348187,386.595855 C233.964767,382.870466 226.659067,377.803109 220.436269,371.378238 C214.203109,364.953368 209.337824,357.409326 205.814508,348.746114 C202.301554,340.093264 200.550259,330.818653 200.550259,320.937824 C200.550259,311.067358 202.301554,301.834197 205.814508,293.238342 C209.337824,284.647668 214.172021,277.139896 220.327461,270.704663 C226.482902,264.290155 233.788601,259.207254 242.24456,255.497409 C250.705699,251.772021 259.809326,249.906736 269.550259,249.906736 C279.28601,249.906736 288.394819,251.772021 296.845596,255.497409 C305.296373,259.207254 312.643523,264.290155 318.866321,270.704663 C325.083938,277.139896 329.959585,284.647668 333.47772,293.238342 C336.995855,301.834197 338.757513,311.067358 338.757513,320.937824 C338.757513,330.818653 336.995855,340.093264 333.47772,348.746114 C329.959585,357.409326 325.083938,364.953368 318.866321,371.378238 C312.643523,377.803109 305.296373,382.870466 296.845596,386.595855 C288.394819,390.316062 279.28601,392.176166 269.550259,392.176166" id="Fill-2496" fill="#19805F"></path>
                <polygon id="Fill-2497" fill="#19805F" points="368.188083 253.359585 387.669948 253.359585 387.669948 371.478756 458.1 371.478756 458.1 388.732642 368.188083 388.732642"></polygon>
                <polygon id="Fill-2498" fill="#19805F" points="483.462694 253.359585 502.939378 253.359585 502.939378 371.478756 573.36943 371.478756 573.36943 388.732642 483.462694 388.732642"></polygon>
                <path d="M649.073575,373.911917 C656.51399,373.911917 663.239378,372.492228 669.260104,369.65285 C675.28601,366.813472 680.425907,362.953368 684.690155,358.082902 C688.949223,353.212435 692.223834,347.564767 694.534715,341.139896 C696.835233,334.715026 697.980311,327.911917 697.980311,320.735751 C697.980311,313.430052 696.835233,306.564767 694.534715,300.134715 C692.223834,293.715026 688.949223,288.062176 684.690155,283.19171 C680.425907,278.326425 675.28601,274.497409 669.260104,271.725389 C663.239378,268.953368 656.51399,267.564767 649.073575,267.564767 C641.627979,267.564767 634.933679,268.953368 628.97513,271.725389 C623.026943,274.497409 617.918135,278.326425 613.653886,283.19171 C609.394819,288.062176 606.104663,293.715026 603.809326,300.134715 C601.508808,306.564767 600.358549,313.430052 600.358549,320.735751 C600.358549,327.911917 601.508808,334.715026 603.809326,341.139896 C606.104663,347.564767 609.394819,353.212435 613.653886,358.082902 C617.918135,362.953368 623.026943,366.813472 628.97513,369.65285 C634.933679,372.492228 641.627979,373.911917 649.073575,373.911917 M649.073575,392.176166 C639.332642,392.176166 630.265285,390.316062 621.876684,386.595855 C613.482902,382.870466 606.177202,377.803109 599.959585,371.378238 C593.726425,364.953368 588.855959,357.409326 585.337824,348.746114 C581.82487,340.093264 580.073575,330.818653 580.073575,320.937824 C580.073575,311.067358 581.82487,301.834197 585.337824,293.238342 C588.855959,284.647668 593.695337,277.139896 599.850777,270.704663 C606.006218,264.290155 613.311917,259.207254 621.767876,255.497409 C630.229016,251.772021 639.332642,249.906736 649.073575,249.906736 C658.809326,249.906736 667.918135,251.772021 676.368912,255.497409 C684.819689,259.207254 692.161658,264.290155 698.389637,270.704663 C704.607254,277.139896 709.47772,284.647668 713.001036,293.238342 C716.519171,301.834197 718.280829,311.067358 718.280829,320.937824 C718.280829,330.818653 716.519171,340.093264 713.001036,348.746114 C709.47772,357.409326 704.607254,364.953368 698.389637,371.378238 C692.161658,377.803109 684.819689,382.870466 676.368912,386.595855 C667.918135,390.316062 658.809326,392.176166 649.073575,392.176166" id="Fill-2499" fill="#19805F"></path>
                <polyline id="Stroke-2501" stroke="#187F5D" stroke-width="16.6839378" points="987.971503 435.172539 987.971503 471.436788 951.707254 471.436788"></polyline>
                <path d="M915.118653,471.436788 L55.2170984,471.436788" id="Stroke-2502" stroke="#187F5D" stroke-width="16.6839378" stroke-dasharray="73.18134505514035,36.59067252757018"></path>
                <polyline id="Stroke-2503" stroke="#187F5D" stroke-width="16.6839378" points="36.9259067 471.436788 0.661658031 471.436788 0.661658031 435.172539"></polyline>
                <path d="M0.661658031,395.290155 L0.661658031,56.2694301" id="Stroke-2504" stroke="#187F5D" stroke-width="16.6839378" stroke-dasharray="79.7720202510221,39.88601012551105"></path>
                <polyline id="Stroke-2505" stroke="#187F5D" stroke-width="16.6839378" points="0.661658031 36.3300518 0.661658031 0.0658031088 36.9259067 0.0658031088"></polyline>
                <path d="M73.5139896,0.0658031088 L933.415544,0.0658031088" id="Stroke-2506" stroke="#187F5D" stroke-width="16.6839378" stroke-dasharray="73.18134505514035,36.59067252757018"></path>
                <polyline id="Stroke-2507" stroke="#187F5D" stroke-width="16.6839378" points="951.706736 0.0658031088 987.970984 0.0658031088 987.970984 36.3300518"></polyline>
                <path d="M987.971503,76.2124352 L987.971503,415.233161" id="Stroke-2508" stroke="#187F5D" stroke-width="16.6839378" stroke-dasharray="79.7720202510221,39.88601012551105"></path>
            </g>
        </g>
    </g>
</svg>